<mxfile host="app.diagrams.net" agent="Mozilla/5.0 (Windows NT 10.0; Win64; x64) AppleWebKit/537.36 (KHTML, like Gecko) Chrome/128.0.0.0 Safari/537.36" version="24.7.16">
  <diagram name="Page-1" id="197159a0-c6a4-9194-75a8-e4174976684c">
    <mxGraphModel dx="1032" dy="1769" grid="1" gridSize="10" guides="1" tooltips="1" connect="1" arrows="1" fold="1" page="1" pageScale="1.5" pageWidth="1169" pageHeight="826" background="none" math="0" shadow="0">
      <root>
        <mxCell id="0" style=";html=1;" />
        <mxCell id="1" style=";html=1;" parent="0" />
        <mxCell id="82a_AhrNkqmRttgPwtjp-102" value="" style="whiteSpace=wrap;html=1;aspect=fixed;fillColor=#1ba1e2;strokeColor=#006EAF;fontColor=#ffffff;" parent="1" vertex="1">
          <mxGeometry x="1350" y="470" width="365" height="365" as="geometry" />
        </mxCell>
        <mxCell id="82a_AhrNkqmRttgPwtjp-93" value="" style="rounded=0;whiteSpace=wrap;html=1;fillColor=#d5e8d4;strokeColor=#82b366;" parent="1" vertex="1">
          <mxGeometry x="980" y="848" width="588.75" height="322" as="geometry" />
        </mxCell>
        <mxCell id="82a_AhrNkqmRttgPwtjp-99" value="" style="whiteSpace=wrap;html=1;aspect=fixed;fillColor=#f8cecc;strokeColor=#b85450;" parent="1" vertex="1">
          <mxGeometry x="170" y="830" width="340" height="340" as="geometry" />
        </mxCell>
        <mxCell id="82a_AhrNkqmRttgPwtjp-100" value="" style="rounded=0;whiteSpace=wrap;html=1;fillColor=#e1d5e7;strokeColor=#9673a6;" parent="1" vertex="1">
          <mxGeometry x="30" y="460" width="286" height="345" as="geometry" />
        </mxCell>
        <mxCell id="82a_AhrNkqmRttgPwtjp-94" value="" style="rounded=0;whiteSpace=wrap;html=1;fillColor=#00FFDD;" parent="1" vertex="1">
          <mxGeometry x="30" y="98" width="286" height="360" as="geometry" />
        </mxCell>
        <mxCell id="82a_AhrNkqmRttgPwtjp-12" style="edgeStyle=orthogonalEdgeStyle;rounded=0;orthogonalLoop=1;jettySize=auto;html=1;" parent="1" source="82a_AhrNkqmRttgPwtjp-2" target="82a_AhrNkqmRttgPwtjp-3" edge="1">
          <mxGeometry relative="1" as="geometry" />
        </mxCell>
        <mxCell id="82a_AhrNkqmRttgPwtjp-14" style="edgeStyle=orthogonalEdgeStyle;rounded=0;orthogonalLoop=1;jettySize=auto;html=1;" parent="1" source="82a_AhrNkqmRttgPwtjp-2" target="82a_AhrNkqmRttgPwtjp-4" edge="1">
          <mxGeometry relative="1" as="geometry">
            <mxPoint x="940" y="658" as="targetPoint" />
          </mxGeometry>
        </mxCell>
        <mxCell id="82a_AhrNkqmRttgPwtjp-2" value="" style="image;html=1;image=img/lib/clip_art/networking/Router_Icon_128x128.png" parent="1" vertex="1">
          <mxGeometry x="550" y="618" width="80" height="80" as="geometry" />
        </mxCell>
        <mxCell id="82a_AhrNkqmRttgPwtjp-3" value="" style="image;html=1;image=img/lib/clip_art/networking/Router_Icon_128x128.png" parent="1" vertex="1">
          <mxGeometry x="550" y="418" width="80" height="80" as="geometry" />
        </mxCell>
        <mxCell id="82a_AhrNkqmRttgPwtjp-15" style="edgeStyle=orthogonalEdgeStyle;rounded=0;orthogonalLoop=1;jettySize=auto;html=1;" parent="1" source="82a_AhrNkqmRttgPwtjp-4" target="82a_AhrNkqmRttgPwtjp-5" edge="1">
          <mxGeometry relative="1" as="geometry" />
        </mxCell>
        <mxCell id="82a_AhrNkqmRttgPwtjp-4" value="" style="image;html=1;image=img/lib/clip_art/networking/Router_Icon_128x128.png" parent="1" vertex="1">
          <mxGeometry x="1000" y="618" width="80" height="80" as="geometry" />
        </mxCell>
        <mxCell id="82a_AhrNkqmRttgPwtjp-10" style="edgeStyle=orthogonalEdgeStyle;rounded=0;orthogonalLoop=1;jettySize=auto;html=1;entryX=1;entryY=0.5;entryDx=0;entryDy=0;" parent="1" target="82a_AhrNkqmRttgPwtjp-3" edge="1">
          <mxGeometry relative="1" as="geometry">
            <mxPoint x="599.9973684210526" y="457.75" as="targetPoint" />
            <mxPoint x="1011.0500000000002" y="457.75" as="sourcePoint" />
          </mxGeometry>
        </mxCell>
        <mxCell id="82a_AhrNkqmRttgPwtjp-5" value="" style="image;html=1;image=img/lib/clip_art/networking/Router_Icon_128x128.png" parent="1" vertex="1">
          <mxGeometry x="1000" y="418" width="80" height="80" as="geometry" />
        </mxCell>
        <mxCell id="82a_AhrNkqmRttgPwtjp-85" style="edgeStyle=orthogonalEdgeStyle;rounded=0;orthogonalLoop=1;jettySize=auto;html=1;entryX=0;entryY=0.5;entryDx=0;entryDy=0;" parent="1" source="82a_AhrNkqmRttgPwtjp-6" target="82a_AhrNkqmRttgPwtjp-84" edge="1">
          <mxGeometry relative="1" as="geometry">
            <Array as="points">
              <mxPoint x="1040" y="158" />
            </Array>
          </mxGeometry>
        </mxCell>
        <mxCell id="82a_AhrNkqmRttgPwtjp-6" value="" style="image;html=1;image=img/lib/clip_art/networking/Router_Icon_128x128.png" parent="1" vertex="1">
          <mxGeometry x="1000" y="248" width="80" height="80" as="geometry" />
        </mxCell>
        <mxCell id="82a_AhrNkqmRttgPwtjp-11" style="edgeStyle=orthogonalEdgeStyle;rounded=0;orthogonalLoop=1;jettySize=auto;html=1;" parent="1" source="82a_AhrNkqmRttgPwtjp-6" target="82a_AhrNkqmRttgPwtjp-5" edge="1">
          <mxGeometry relative="1" as="geometry" />
        </mxCell>
        <mxCell id="82a_AhrNkqmRttgPwtjp-16" value="" style="sketch=0;points=[[0.015,0.015,0],[0.985,0.015,0],[0.985,0.985,0],[0.015,0.985,0],[0.25,0,0],[0.5,0,0],[0.75,0,0],[1,0.25,0],[1,0.5,0],[1,0.75,0],[0.75,1,0],[0.5,1,0],[0.25,1,0],[0,0.75,0],[0,0.5,0],[0,0.25,0]];verticalLabelPosition=bottom;html=1;verticalAlign=top;aspect=fixed;align=center;pointerEvents=1;shape=mxgraph.cisco19.rect;prIcon=l3_switch;fillColor=#FAFAFA;strokeColor=#005073;" parent="1" vertex="1">
          <mxGeometry x="374" y="805" width="50" height="50" as="geometry" />
        </mxCell>
        <mxCell id="82a_AhrNkqmRttgPwtjp-17" value="" style="sketch=0;points=[[0.015,0.015,0],[0.985,0.015,0],[0.985,0.985,0],[0.015,0.985,0],[0.25,0,0],[0.5,0,0],[0.75,0,0],[1,0.25,0],[1,0.5,0],[1,0.75,0],[0.75,1,0],[0.5,1,0],[0.25,1,0],[0,0.75,0],[0,0.5,0],[0,0.25,0]];verticalLabelPosition=bottom;html=1;verticalAlign=top;aspect=fixed;align=center;pointerEvents=1;shape=mxgraph.cisco19.rect;prIcon=l3_switch;fillColor=#FAFAFA;strokeColor=#005073;" parent="1" vertex="1">
          <mxGeometry x="123.5" y="433" width="50" height="50" as="geometry" />
        </mxCell>
        <mxCell id="82a_AhrNkqmRttgPwtjp-18" value="" style="sketch=0;points=[[0.015,0.015,0],[0.985,0.015,0],[0.985,0.985,0],[0.015,0.985,0],[0.25,0,0],[0.5,0,0],[0.75,0,0],[1,0.25,0],[1,0.5,0],[1,0.75,0],[0.75,1,0],[0.5,1,0],[0.25,1,0],[0,0.75,0],[0,0.5,0],[0,0.25,0]];verticalLabelPosition=bottom;html=1;verticalAlign=top;aspect=fixed;align=center;pointerEvents=1;shape=mxgraph.cisco19.rect;prIcon=l3_switch;fillColor=#FAFAFA;strokeColor=#005073;" parent="1" vertex="1">
          <mxGeometry x="1220" y="633" width="50" height="50" as="geometry" />
        </mxCell>
        <mxCell id="82a_AhrNkqmRttgPwtjp-21" style="edgeStyle=orthogonalEdgeStyle;rounded=0;orthogonalLoop=1;jettySize=auto;html=1;" parent="1" source="82a_AhrNkqmRttgPwtjp-4" target="82a_AhrNkqmRttgPwtjp-18" edge="1">
          <mxGeometry relative="1" as="geometry">
            <mxPoint x="1185" y="738" as="targetPoint" />
          </mxGeometry>
        </mxCell>
        <mxCell id="82a_AhrNkqmRttgPwtjp-61" style="edgeStyle=orthogonalEdgeStyle;rounded=0;orthogonalLoop=1;jettySize=auto;html=1;" parent="1" source="82a_AhrNkqmRttgPwtjp-22" target="82a_AhrNkqmRttgPwtjp-50" edge="1">
          <mxGeometry relative="1" as="geometry" />
        </mxCell>
        <mxCell id="82a_AhrNkqmRttgPwtjp-22" value="" style="sketch=0;points=[[0.015,0.015,0],[0.985,0.015,0],[0.985,0.985,0],[0.015,0.985,0],[0.25,0,0],[0.5,0,0],[0.75,0,0],[1,0.25,0],[1,0.5,0],[1,0.75,0],[0.75,1,0],[0.5,1,0],[0.25,1,0],[0,0.75,0],[0,0.5,0],[0,0.25,0]];verticalLabelPosition=bottom;html=1;verticalAlign=top;aspect=fixed;align=center;pointerEvents=1;shape=mxgraph.cisco19.rect;prIcon=l3_switch;fillColor=#FAFAFA;strokeColor=#005073;" parent="1" vertex="1">
          <mxGeometry x="1220" y="433" width="50" height="50" as="geometry" />
        </mxCell>
        <mxCell id="82a_AhrNkqmRttgPwtjp-23" style="edgeStyle=orthogonalEdgeStyle;rounded=0;orthogonalLoop=1;jettySize=auto;html=1;entryX=0.338;entryY=0.49;entryDx=0;entryDy=0;entryPerimeter=0;" parent="1" source="82a_AhrNkqmRttgPwtjp-5" target="82a_AhrNkqmRttgPwtjp-22" edge="1">
          <mxGeometry relative="1" as="geometry" />
        </mxCell>
        <mxCell id="82a_AhrNkqmRttgPwtjp-27" value="" style="edgeStyle=orthogonalEdgeStyle;rounded=0;orthogonalLoop=1;jettySize=auto;html=1;" parent="1" source="82a_AhrNkqmRttgPwtjp-16" target="82a_AhrNkqmRttgPwtjp-25" edge="1">
          <mxGeometry relative="1" as="geometry">
            <mxPoint x="399" y="778" as="sourcePoint" />
            <mxPoint x="400" y="898" as="targetPoint" />
          </mxGeometry>
        </mxCell>
        <mxCell id="82a_AhrNkqmRttgPwtjp-35" style="edgeStyle=orthogonalEdgeStyle;rounded=0;orthogonalLoop=1;jettySize=auto;html=1;" parent="1" source="82a_AhrNkqmRttgPwtjp-25" target="82a_AhrNkqmRttgPwtjp-33" edge="1">
          <mxGeometry relative="1" as="geometry" />
        </mxCell>
        <mxCell id="82a_AhrNkqmRttgPwtjp-25" value="" style="sketch=0;points=[[0.015,0.015,0],[0.985,0.015,0],[0.985,0.985,0],[0.015,0.985,0],[0.25,0,0],[0.5,0,0],[0.75,0,0],[1,0.25,0],[1,0.5,0],[1,0.75,0],[0.75,1,0],[0.5,1,0],[0.25,1,0],[0,0.75,0],[0,0.5,0],[0,0.25,0]];verticalLabelPosition=bottom;html=1;verticalAlign=top;aspect=fixed;align=center;pointerEvents=1;shape=mxgraph.cisco19.rect;prIcon=l2_switch;fillColor=#FAFAFA;strokeColor=#005073;" parent="1" vertex="1">
          <mxGeometry x="374" y="910" width="50" height="50" as="geometry" />
        </mxCell>
        <mxCell id="82a_AhrNkqmRttgPwtjp-40" style="edgeStyle=orthogonalEdgeStyle;rounded=0;orthogonalLoop=1;jettySize=auto;html=1;" parent="1" source="82a_AhrNkqmRttgPwtjp-28" target="82a_AhrNkqmRttgPwtjp-38" edge="1">
          <mxGeometry relative="1" as="geometry" />
        </mxCell>
        <mxCell id="82a_AhrNkqmRttgPwtjp-45" style="edgeStyle=orthogonalEdgeStyle;rounded=0;orthogonalLoop=1;jettySize=auto;html=1;" parent="1" source="82a_AhrNkqmRttgPwtjp-28" target="82a_AhrNkqmRttgPwtjp-44" edge="1">
          <mxGeometry relative="1" as="geometry">
            <mxPoint x="1502.4814814814808" y="1026" as="targetPoint" />
          </mxGeometry>
        </mxCell>
        <mxCell id="82a_AhrNkqmRttgPwtjp-28" value="" style="sketch=0;points=[[0.015,0.015,0],[0.985,0.015,0],[0.985,0.985,0],[0.015,0.985,0],[0.25,0,0],[0.5,0,0],[0.75,0,0],[1,0.25,0],[1,0.5,0],[1,0.75,0],[0.75,1,0],[0.5,1,0],[0.25,1,0],[0,0.75,0],[0,0.5,0],[0,0.25,0]];verticalLabelPosition=bottom;html=1;verticalAlign=top;aspect=fixed;align=center;pointerEvents=1;shape=mxgraph.cisco19.rect;prIcon=l2_switch;fillColor=#FAFAFA;strokeColor=#005073;" parent="1" vertex="1">
          <mxGeometry x="1220" y="888" width="50" height="50" as="geometry" />
        </mxCell>
        <mxCell id="82a_AhrNkqmRttgPwtjp-29" style="edgeStyle=orthogonalEdgeStyle;rounded=0;orthogonalLoop=1;jettySize=auto;html=1;entryX=0.5;entryY=0;entryDx=0;entryDy=0;entryPerimeter=0;" parent="1" source="82a_AhrNkqmRttgPwtjp-18" target="82a_AhrNkqmRttgPwtjp-80" edge="1">
          <mxGeometry relative="1" as="geometry" />
        </mxCell>
        <mxCell id="82a_AhrNkqmRttgPwtjp-62" style="edgeStyle=orthogonalEdgeStyle;rounded=0;orthogonalLoop=1;jettySize=auto;html=1;" parent="1" source="82a_AhrNkqmRttgPwtjp-30" target="82a_AhrNkqmRttgPwtjp-17" edge="1">
          <mxGeometry relative="1" as="geometry" />
        </mxCell>
        <mxCell id="82a_AhrNkqmRttgPwtjp-30" value="" style="sketch=0;points=[[0.015,0.015,0],[0.985,0.015,0],[0.985,0.985,0],[0.015,0.985,0],[0.25,0,0],[0.5,0,0],[0.75,0,0],[1,0.25,0],[1,0.5,0],[1,0.75,0],[0.75,1,0],[0.5,1,0],[0.25,1,0],[0,0.75,0],[0,0.5,0],[0,0.25,0]];verticalLabelPosition=bottom;html=1;verticalAlign=top;aspect=fixed;align=center;pointerEvents=1;shape=mxgraph.cisco19.rect;prIcon=l2_switch;fillColor=#FAFAFA;strokeColor=#005073;" parent="1" vertex="1">
          <mxGeometry x="123.5" y="560" width="50" height="50" as="geometry" />
        </mxCell>
        <mxCell id="82a_AhrNkqmRttgPwtjp-78" style="edgeStyle=orthogonalEdgeStyle;rounded=0;orthogonalLoop=1;jettySize=auto;html=1;" parent="1" source="82a_AhrNkqmRttgPwtjp-31" target="82a_AhrNkqmRttgPwtjp-76" edge="1">
          <mxGeometry relative="1" as="geometry" />
        </mxCell>
        <mxCell id="82a_AhrNkqmRttgPwtjp-31" value="" style="sketch=0;points=[[0.015,0.015,0],[0.985,0.015,0],[0.985,0.985,0],[0.015,0.985,0],[0.25,0,0],[0.5,0,0],[0.75,0,0],[1,0.25,0],[1,0.5,0],[1,0.75,0],[0.75,1,0],[0.5,1,0],[0.25,1,0],[0,0.75,0],[0,0.5,0],[0,0.25,0]];verticalLabelPosition=bottom;html=1;verticalAlign=top;aspect=fixed;align=center;pointerEvents=1;shape=mxgraph.cisco19.rect;prIcon=l2_switch;fillColor=#FAFAFA;strokeColor=#005073;" parent="1" vertex="1">
          <mxGeometry x="123.5" y="328" width="50" height="50" as="geometry" />
        </mxCell>
        <mxCell id="82a_AhrNkqmRttgPwtjp-33" value="" style="shape=mxgraph.cisco.computers_and_peripherals.sun_workstation;html=1;pointerEvents=1;dashed=0;fillColor=#036897;strokeColor=#ffffff;strokeWidth=2;verticalLabelPosition=bottom;verticalAlign=top;align=center;outlineConnect=0;" parent="1" vertex="1">
          <mxGeometry x="356.5" y="1018" width="85" height="67" as="geometry" />
        </mxCell>
        <mxCell id="82a_AhrNkqmRttgPwtjp-34" style="edgeStyle=orthogonalEdgeStyle;rounded=0;orthogonalLoop=1;jettySize=auto;html=1;" parent="1" source="82a_AhrNkqmRttgPwtjp-25" target="82a_AhrNkqmRttgPwtjp-36" edge="1">
          <mxGeometry relative="1" as="geometry">
            <mxPoint x="233" y="988.0000000000005" as="targetPoint" />
          </mxGeometry>
        </mxCell>
        <mxCell id="82a_AhrNkqmRttgPwtjp-36" value="" style="shape=mxgraph.cisco.computers_and_peripherals.sun_workstation;html=1;pointerEvents=1;dashed=0;fillColor=#036897;strokeColor=#ffffff;strokeWidth=2;verticalLabelPosition=bottom;verticalAlign=top;align=center;outlineConnect=0;" parent="1" vertex="1">
          <mxGeometry x="200" y="1018" width="85" height="67" as="geometry" />
        </mxCell>
        <mxCell id="82a_AhrNkqmRttgPwtjp-37" value="" style="fontColor=#0066CC;verticalAlign=top;verticalLabelPosition=bottom;labelPosition=center;align=center;html=1;outlineConnect=0;fillColor=#CCCCCC;strokeColor=#6881B3;gradientColor=none;gradientDirection=north;strokeWidth=2;shape=mxgraph.networks.desktop_pc;" parent="1" vertex="1">
          <mxGeometry x="1161" y="1023" width="30" height="70" as="geometry" />
        </mxCell>
        <mxCell id="82a_AhrNkqmRttgPwtjp-38" value="" style="sketch=0;pointerEvents=1;shadow=0;dashed=0;html=1;strokeColor=none;fillColor=#505050;labelPosition=center;verticalLabelPosition=bottom;verticalAlign=top;outlineConnect=0;align=center;shape=mxgraph.office.devices.workstation_pc;" parent="1" vertex="1">
          <mxGeometry x="1050" y="1018" width="70" height="80" as="geometry" />
        </mxCell>
        <mxCell id="82a_AhrNkqmRttgPwtjp-41" style="edgeStyle=orthogonalEdgeStyle;rounded=0;orthogonalLoop=1;jettySize=auto;html=1;entryX=0.5;entryY=0;entryDx=0;entryDy=0;entryPerimeter=0;" parent="1" source="82a_AhrNkqmRttgPwtjp-28" target="82a_AhrNkqmRttgPwtjp-37" edge="1">
          <mxGeometry relative="1" as="geometry" />
        </mxCell>
        <mxCell id="82a_AhrNkqmRttgPwtjp-42" value="" style="shape=mxgraph.cisco.computers_and_peripherals.sun_workstation;html=1;pointerEvents=1;dashed=0;fillColor=#036897;strokeColor=#ffffff;strokeWidth=2;verticalLabelPosition=bottom;verticalAlign=top;align=center;outlineConnect=0;" parent="1" vertex="1">
          <mxGeometry x="1340" y="1026" width="85" height="67" as="geometry" />
        </mxCell>
        <mxCell id="82a_AhrNkqmRttgPwtjp-43" style="edgeStyle=orthogonalEdgeStyle;rounded=0;orthogonalLoop=1;jettySize=auto;html=1;entryX=0.5;entryY=0;entryDx=0;entryDy=0;entryPerimeter=0;" parent="1" source="82a_AhrNkqmRttgPwtjp-28" target="82a_AhrNkqmRttgPwtjp-42" edge="1">
          <mxGeometry relative="1" as="geometry" />
        </mxCell>
        <mxCell id="82a_AhrNkqmRttgPwtjp-44" value="" style="shape=mxgraph.cisco.computers_and_peripherals.sun_workstation;html=1;pointerEvents=1;dashed=0;fillColor=#036897;strokeColor=#ffffff;strokeWidth=2;verticalLabelPosition=bottom;verticalAlign=top;align=center;outlineConnect=0;" parent="1" vertex="1">
          <mxGeometry x="1460" y="1026" width="85" height="67" as="geometry" />
        </mxCell>
        <mxCell id="82a_AhrNkqmRttgPwtjp-47" value="" style="fontColor=#0066CC;verticalAlign=top;verticalLabelPosition=bottom;labelPosition=center;align=center;html=1;outlineConnect=0;fillColor=#CCCCCC;strokeColor=#6881B3;gradientColor=none;gradientDirection=north;strokeWidth=2;shape=mxgraph.networks.desktop_pc;" parent="1" vertex="1">
          <mxGeometry x="1656.5" y="511" width="30" height="60" as="geometry" />
        </mxCell>
        <mxCell id="82a_AhrNkqmRttgPwtjp-48" value="" style="shape=mxgraph.cisco.computers_and_peripherals.sun_workstation;html=1;pointerEvents=1;dashed=0;fillColor=#036897;strokeColor=#ffffff;strokeWidth=2;verticalLabelPosition=bottom;verticalAlign=top;align=center;outlineConnect=0;" parent="1" vertex="1">
          <mxGeometry x="1407.5" y="750" width="85" height="67" as="geometry" />
        </mxCell>
        <mxCell id="82a_AhrNkqmRttgPwtjp-59" style="edgeStyle=orthogonalEdgeStyle;rounded=0;orthogonalLoop=1;jettySize=auto;html=1;" parent="1" source="82a_AhrNkqmRttgPwtjp-49" target="82a_AhrNkqmRttgPwtjp-50" edge="1">
          <mxGeometry relative="1" as="geometry" />
        </mxCell>
        <mxCell id="82a_AhrNkqmRttgPwtjp-49" value="" style="shape=mxgraph.cisco.computers_and_peripherals.sun_workstation;html=1;pointerEvents=1;dashed=0;fillColor=#036897;strokeColor=#ffffff;strokeWidth=2;verticalLabelPosition=bottom;verticalAlign=top;align=center;outlineConnect=0;" parent="1" vertex="1">
          <mxGeometry x="1556.5" y="675" width="85" height="67" as="geometry" />
        </mxCell>
        <mxCell id="82a_AhrNkqmRttgPwtjp-60" style="edgeStyle=orthogonalEdgeStyle;rounded=0;orthogonalLoop=1;jettySize=auto;html=1;" parent="1" source="82a_AhrNkqmRttgPwtjp-50" target="82a_AhrNkqmRttgPwtjp-47" edge="1">
          <mxGeometry relative="1" as="geometry" />
        </mxCell>
        <mxCell id="82a_AhrNkqmRttgPwtjp-104" style="edgeStyle=orthogonalEdgeStyle;rounded=0;orthogonalLoop=1;jettySize=auto;html=1;" parent="1" source="82a_AhrNkqmRttgPwtjp-50" target="82a_AhrNkqmRttgPwtjp-48" edge="1">
          <mxGeometry relative="1" as="geometry">
            <mxPoint x="1450" y="690" as="targetPoint" />
          </mxGeometry>
        </mxCell>
        <mxCell id="82a_AhrNkqmRttgPwtjp-50" value="" style="sketch=0;points=[[0.015,0.015,0],[0.985,0.015,0],[0.985,0.985,0],[0.015,0.985,0],[0.25,0,0],[0.5,0,0],[0.75,0,0],[1,0.25,0],[1,0.5,0],[1,0.75,0],[0.75,1,0],[0.5,1,0],[0.25,1,0],[0,0.75,0],[0,0.5,0],[0,0.25,0]];verticalLabelPosition=bottom;html=1;verticalAlign=top;aspect=fixed;align=center;pointerEvents=1;shape=mxgraph.cisco19.rect;prIcon=l2_switch;fillColor=#FAFAFA;strokeColor=#005073;" parent="1" vertex="1">
          <mxGeometry x="1425" y="516" width="50" height="50" as="geometry" />
        </mxCell>
        <mxCell id="82a_AhrNkqmRttgPwtjp-63" style="edgeStyle=orthogonalEdgeStyle;rounded=0;orthogonalLoop=1;jettySize=auto;html=1;entryX=0.492;entryY=0.947;entryDx=0;entryDy=0;entryPerimeter=0;" parent="1" source="82a_AhrNkqmRttgPwtjp-17" target="82a_AhrNkqmRttgPwtjp-31" edge="1">
          <mxGeometry relative="1" as="geometry" />
        </mxCell>
        <mxCell id="82a_AhrNkqmRttgPwtjp-64" value="" style="sketch=0;points=[[0.015,0.015,0],[0.985,0.015,0],[0.985,0.985,0],[0.015,0.985,0],[0.25,0,0],[0.5,0,0],[0.75,0,0],[1,0.25,0],[1,0.5,0],[1,0.75,0],[0.75,1,0],[0.5,1,0],[0.25,1,0],[0,0.75,0],[0,0.5,0],[0,0.25,0]];verticalLabelPosition=bottom;html=1;verticalAlign=top;aspect=fixed;align=center;pointerEvents=1;shape=mxgraph.cisco19.rect;prIcon=ips_ids;fillColor=#FAFAFA;strokeColor=#005073;" parent="1" vertex="1">
          <mxGeometry x="367" y="633" width="64" height="50" as="geometry" />
        </mxCell>
        <mxCell id="82a_AhrNkqmRttgPwtjp-65" value="" style="sketch=0;points=[[0.015,0.015,0],[0.985,0.015,0],[0.985,0.985,0],[0.015,0.985,0],[0.25,0,0],[0.5,0,0],[0.75,0,0],[1,0.25,0],[1,0.5,0],[1,0.75,0],[0.75,1,0],[0.5,1,0],[0.25,1,0],[0,0.75,0],[0,0.5,0],[0,0.25,0]];verticalLabelPosition=bottom;html=1;verticalAlign=top;aspect=fixed;align=center;pointerEvents=1;shape=mxgraph.cisco19.rect;prIcon=ips_ids;fillColor=#FAFAFA;strokeColor=#005073;" parent="1" vertex="1">
          <mxGeometry x="367" y="433" width="64" height="50" as="geometry" />
        </mxCell>
        <mxCell id="82a_AhrNkqmRttgPwtjp-66" style="edgeStyle=orthogonalEdgeStyle;rounded=0;orthogonalLoop=1;jettySize=auto;html=1;entryX=1;entryY=0.5;entryDx=0;entryDy=0;entryPerimeter=0;" parent="1" source="82a_AhrNkqmRttgPwtjp-3" target="82a_AhrNkqmRttgPwtjp-65" edge="1">
          <mxGeometry relative="1" as="geometry" />
        </mxCell>
        <mxCell id="82a_AhrNkqmRttgPwtjp-67" style="edgeStyle=orthogonalEdgeStyle;rounded=0;orthogonalLoop=1;jettySize=auto;html=1;entryX=1;entryY=0.5;entryDx=0;entryDy=0;entryPerimeter=0;" parent="1" source="82a_AhrNkqmRttgPwtjp-65" target="82a_AhrNkqmRttgPwtjp-17" edge="1">
          <mxGeometry relative="1" as="geometry" />
        </mxCell>
        <mxCell id="82a_AhrNkqmRttgPwtjp-69" style="edgeStyle=orthogonalEdgeStyle;rounded=0;orthogonalLoop=1;jettySize=auto;html=1;entryX=1;entryY=0.5;entryDx=0;entryDy=0;entryPerimeter=0;" parent="1" source="82a_AhrNkqmRttgPwtjp-2" target="82a_AhrNkqmRttgPwtjp-64" edge="1">
          <mxGeometry relative="1" as="geometry" />
        </mxCell>
        <mxCell id="82a_AhrNkqmRttgPwtjp-70" style="edgeStyle=orthogonalEdgeStyle;rounded=0;orthogonalLoop=1;jettySize=auto;html=1;entryX=0.5;entryY=0;entryDx=0;entryDy=0;entryPerimeter=0;" parent="1" source="82a_AhrNkqmRttgPwtjp-64" target="82a_AhrNkqmRttgPwtjp-16" edge="1">
          <mxGeometry relative="1" as="geometry" />
        </mxCell>
        <mxCell id="82a_AhrNkqmRttgPwtjp-72" value="" style="shape=mxgraph.cisco.computers_and_peripherals.pc;html=1;pointerEvents=1;dashed=0;fillColor=#036897;strokeColor=#ffffff;strokeWidth=2;verticalLabelPosition=bottom;verticalAlign=top;align=center;outlineConnect=0;" parent="1" vertex="1">
          <mxGeometry x="60" y="673.5" width="78" height="70" as="geometry" />
        </mxCell>
        <mxCell id="82a_AhrNkqmRttgPwtjp-73" value="" style="shape=mxgraph.cisco.computers_and_peripherals.pc;html=1;pointerEvents=1;dashed=0;fillColor=#036897;strokeColor=#ffffff;strokeWidth=2;verticalLabelPosition=bottom;verticalAlign=top;align=center;outlineConnect=0;" parent="1" vertex="1">
          <mxGeometry x="170" y="673.5" width="78" height="70" as="geometry" />
        </mxCell>
        <mxCell id="82a_AhrNkqmRttgPwtjp-74" style="edgeStyle=orthogonalEdgeStyle;rounded=0;orthogonalLoop=1;jettySize=auto;html=1;entryX=0.5;entryY=0;entryDx=0;entryDy=0;entryPerimeter=0;" parent="1" source="82a_AhrNkqmRttgPwtjp-30" target="82a_AhrNkqmRttgPwtjp-72" edge="1">
          <mxGeometry relative="1" as="geometry" />
        </mxCell>
        <mxCell id="82a_AhrNkqmRttgPwtjp-75" style="edgeStyle=orthogonalEdgeStyle;rounded=0;orthogonalLoop=1;jettySize=auto;html=1;entryX=0.5;entryY=0;entryDx=0;entryDy=0;entryPerimeter=0;" parent="1" source="82a_AhrNkqmRttgPwtjp-30" target="82a_AhrNkqmRttgPwtjp-73" edge="1">
          <mxGeometry relative="1" as="geometry" />
        </mxCell>
        <mxCell id="82a_AhrNkqmRttgPwtjp-76" value="" style="shape=mxgraph.cisco.computers_and_peripherals.pc;html=1;pointerEvents=1;dashed=0;fillColor=#036897;strokeColor=#ffffff;strokeWidth=2;verticalLabelPosition=bottom;verticalAlign=top;align=center;outlineConnect=0;" parent="1" vertex="1">
          <mxGeometry x="60" y="188" width="78" height="70" as="geometry" />
        </mxCell>
        <mxCell id="82a_AhrNkqmRttgPwtjp-77" value="" style="shape=mxgraph.cisco.computers_and_peripherals.pc;html=1;pointerEvents=1;dashed=0;fillColor=#036897;strokeColor=#ffffff;strokeWidth=2;verticalLabelPosition=bottom;verticalAlign=top;align=center;outlineConnect=0;" parent="1" vertex="1">
          <mxGeometry x="170" y="188" width="78" height="70" as="geometry" />
        </mxCell>
        <mxCell id="82a_AhrNkqmRttgPwtjp-80" value="" style="sketch=0;points=[[0.015,0.015,0],[0.985,0.015,0],[0.985,0.985,0],[0.015,0.985,0],[0.25,0,0],[0.5,0,0],[0.75,0,0],[1,0.25,0],[1,0.5,0],[1,0.75,0],[0.75,1,0],[0.5,1,0],[0.25,1,0],[0,0.75,0],[0,0.5,0],[0,0.25,0]];verticalLabelPosition=bottom;html=1;verticalAlign=top;aspect=fixed;align=center;pointerEvents=1;shape=mxgraph.cisco19.rect;prIcon=ips_ids;fillColor=#FAFAFA;strokeColor=#005073;" parent="1" vertex="1">
          <mxGeometry x="1214" y="747" width="64" height="50" as="geometry" />
        </mxCell>
        <mxCell id="82a_AhrNkqmRttgPwtjp-81" style="edgeStyle=orthogonalEdgeStyle;rounded=0;orthogonalLoop=1;jettySize=auto;html=1;" parent="1" source="82a_AhrNkqmRttgPwtjp-80" edge="1">
          <mxGeometry relative="1" as="geometry">
            <mxPoint x="1245" y="888" as="targetPoint" />
          </mxGeometry>
        </mxCell>
        <mxCell id="82a_AhrNkqmRttgPwtjp-84" value="" style="image;html=1;image=img/lib/clip_art/networking/Firewall_02_128x128.png" parent="1" vertex="1">
          <mxGeometry x="1180" y="118" width="80" height="80" as="geometry" />
        </mxCell>
        <mxCell id="82a_AhrNkqmRttgPwtjp-86" value="" style="image;aspect=fixed;perimeter=ellipsePerimeter;html=1;align=center;shadow=0;dashed=0;spacingTop=3;image=img/lib/active_directory/internet_globe.svg;" parent="1" vertex="1">
          <mxGeometry x="1502.5" y="108" width="100" height="100" as="geometry" />
        </mxCell>
        <mxCell id="82a_AhrNkqmRttgPwtjp-87" style="edgeStyle=orthogonalEdgeStyle;rounded=0;orthogonalLoop=1;jettySize=auto;html=1;" parent="1" source="82a_AhrNkqmRttgPwtjp-84" target="82a_AhrNkqmRttgPwtjp-86" edge="1">
          <mxGeometry relative="1" as="geometry">
            <Array as="points">
              <mxPoint x="1510" y="158" />
              <mxPoint x="1510" y="158" />
            </Array>
          </mxGeometry>
        </mxCell>
        <mxCell id="82a_AhrNkqmRttgPwtjp-88" value="&lt;font style=&quot;font-size: 24px;&quot;&gt;&lt;b style=&quot;&quot;&gt;LOCATION 1&lt;/b&gt;&lt;/font&gt;" style="text;html=1;align=center;verticalAlign=middle;whiteSpace=wrap;rounded=0;" parent="1" vertex="1">
          <mxGeometry x="496" y="361" width="191.25" height="58" as="geometry" />
        </mxCell>
        <mxCell id="82a_AhrNkqmRttgPwtjp-89" value="&lt;font style=&quot;font-size: 24px;&quot;&gt;&lt;b style=&quot;&quot;&gt;LOCATION 2&lt;/b&gt;&lt;/font&gt;" style="text;html=1;align=center;verticalAlign=middle;whiteSpace=wrap;rounded=0;" parent="1" vertex="1">
          <mxGeometry x="508.75" y="692" width="162.5" height="58" as="geometry" />
        </mxCell>
        <mxCell id="82a_AhrNkqmRttgPwtjp-90" value="&lt;font style=&quot;font-size: 24px;&quot;&gt;&lt;b style=&quot;&quot;&gt;LOCATION 3&lt;/b&gt;&lt;/font&gt;" style="text;html=1;align=center;verticalAlign=middle;whiteSpace=wrap;rounded=0;" parent="1" vertex="1">
          <mxGeometry x="950" y="692" width="162.5" height="58" as="geometry" />
        </mxCell>
        <mxCell id="82a_AhrNkqmRttgPwtjp-91" value="&lt;font style=&quot;font-size: 24px;&quot;&gt;&lt;b style=&quot;&quot;&gt;LOCATION 4&lt;/b&gt;&lt;/font&gt;" style="text;html=1;align=center;verticalAlign=middle;whiteSpace=wrap;rounded=0;" parent="1" vertex="1">
          <mxGeometry x="1297.5" y="400" width="162.5" height="58" as="geometry" />
        </mxCell>
        <mxCell id="82a_AhrNkqmRttgPwtjp-97" style="edgeStyle=orthogonalEdgeStyle;rounded=0;orthogonalLoop=1;jettySize=auto;html=1;" parent="1" source="82a_AhrNkqmRttgPwtjp-77" edge="1">
          <mxGeometry relative="1" as="geometry">
            <mxPoint x="147" y="330" as="targetPoint" />
            <Array as="points">
              <mxPoint x="219" y="290" />
              <mxPoint x="147" y="290" />
            </Array>
          </mxGeometry>
        </mxCell>
        <mxCell id="82a_AhrNkqmRttgPwtjp-105" value="&lt;span style=&quot;font-size: 24px;&quot;&gt;&lt;b&gt;Internet&lt;/b&gt;&lt;/span&gt;" style="text;html=1;align=center;verticalAlign=middle;whiteSpace=wrap;rounded=0;" parent="1" vertex="1">
          <mxGeometry x="1451.25" y="210" width="202.5" height="58" as="geometry" />
        </mxCell>
        <mxCell id="82a_AhrNkqmRttgPwtjp-106" value="&lt;span style=&quot;font-size: 24px;&quot;&gt;&lt;b&gt;Firewall&lt;/b&gt;&lt;/span&gt;" style="text;html=1;align=center;verticalAlign=middle;whiteSpace=wrap;rounded=0;" parent="1" vertex="1">
          <mxGeometry x="1113.5" y="211" width="202.5" height="58" as="geometry" />
        </mxCell>
        <mxCell id="82a_AhrNkqmRttgPwtjp-107" value="&lt;span style=&quot;font-size: 24px;&quot;&gt;&lt;b&gt;Main Router&lt;/b&gt;&lt;/span&gt;" style="text;html=1;align=center;verticalAlign=middle;whiteSpace=wrap;rounded=0;" parent="1" vertex="1">
          <mxGeometry x="800" y="248" width="202.5" height="58" as="geometry" />
        </mxCell>
        <mxCell id="jJe0wLR6unId7IcCSNrv-1" value="Web Server" style="text;html=1;align=center;verticalAlign=middle;whiteSpace=wrap;rounded=0;" parent="1" vertex="1">
          <mxGeometry x="1641.5" y="580" width="60" height="30" as="geometry" />
        </mxCell>
        <mxCell id="jJe0wLR6unId7IcCSNrv-2" value="AD DS" style="text;html=1;align=center;verticalAlign=middle;whiteSpace=wrap;rounded=0;" parent="1" vertex="1">
          <mxGeometry x="1055" y="1120" width="60" height="30" as="geometry" />
        </mxCell>
        <mxCell id="jJe0wLR6unId7IcCSNrv-3" value="DHCP &amp;amp; DNS" style="text;html=1;align=center;verticalAlign=middle;whiteSpace=wrap;rounded=0;" parent="1" vertex="1">
          <mxGeometry x="1146" y="1118" width="60" height="30" as="geometry" />
        </mxCell>
        <mxCell id="jJe0wLR6unId7IcCSNrv-4" value="L3-CLIENT 1" style="text;html=1;align=center;verticalAlign=middle;whiteSpace=wrap;rounded=0;" parent="1" vertex="1">
          <mxGeometry x="1338.75" y="1110" width="80" height="30" as="geometry" />
        </mxCell>
        <mxCell id="jJe0wLR6unId7IcCSNrv-5" value="L3-CLIENT 2" style="text;html=1;align=center;verticalAlign=middle;whiteSpace=wrap;rounded=0;" parent="1" vertex="1">
          <mxGeometry x="1451.25" y="1110" width="80" height="30" as="geometry" />
        </mxCell>
        <mxCell id="jJe0wLR6unId7IcCSNrv-6" value="L4-CLIENT 1" style="text;html=1;align=center;verticalAlign=middle;whiteSpace=wrap;rounded=0;" parent="1" vertex="1">
          <mxGeometry x="1492.5" y="771" width="80" height="25" as="geometry" />
        </mxCell>
        <mxCell id="jJe0wLR6unId7IcCSNrv-7" value="L4-CLIENT 1" style="text;html=1;align=center;verticalAlign=middle;whiteSpace=wrap;rounded=0;" parent="1" vertex="1">
          <mxGeometry x="1622.5" y="683" width="80" height="25" as="geometry" />
        </mxCell>
        <mxCell id="-V9YLT44HrTgCmrXW2-U-1" value="L2-CLIENT1" style="text;html=1;align=center;verticalAlign=middle;whiteSpace=wrap;rounded=0;" parent="1" vertex="1">
          <mxGeometry x="349.5" y="1085" width="86" height="30" as="geometry" />
        </mxCell>
        <mxCell id="-V9YLT44HrTgCmrXW2-U-2" value="L2-CLIENT2" style="text;html=1;align=center;verticalAlign=middle;whiteSpace=wrap;rounded=0;" parent="1" vertex="1">
          <mxGeometry x="196" y="1084" width="86" height="30" as="geometry" />
        </mxCell>
        <mxCell id="-V9YLT44HrTgCmrXW2-U-3" value="L1-CLIENT2" style="text;html=1;align=center;verticalAlign=middle;whiteSpace=wrap;rounded=0;" parent="1" vertex="1">
          <mxGeometry x="162" y="750" width="86" height="30" as="geometry" />
        </mxCell>
        <mxCell id="-V9YLT44HrTgCmrXW2-U-4" value="L1-CLIENT1" style="text;html=1;align=center;verticalAlign=middle;whiteSpace=wrap;rounded=0;" parent="1" vertex="1">
          <mxGeometry x="52" y="750" width="86" height="30" as="geometry" />
        </mxCell>
        <mxCell id="-V9YLT44HrTgCmrXW2-U-5" value="L1-CLIENT3" style="text;html=1;align=center;verticalAlign=middle;whiteSpace=wrap;rounded=0;" parent="1" vertex="1">
          <mxGeometry x="166" y="158" width="86" height="30" as="geometry" />
        </mxCell>
        <mxCell id="-V9YLT44HrTgCmrXW2-U-6" value="L1-CLIENT4" style="text;html=1;align=center;verticalAlign=middle;whiteSpace=wrap;rounded=0;" parent="1" vertex="1">
          <mxGeometry x="56" y="158" width="86" height="30" as="geometry" />
        </mxCell>
        <mxCell id="-V9YLT44HrTgCmrXW2-U-7" value="VLAN10" style="text;html=1;align=center;verticalAlign=middle;whiteSpace=wrap;rounded=0;" parent="1" vertex="1">
          <mxGeometry x="166" y="140" width="86" height="30" as="geometry" />
        </mxCell>
        <mxCell id="-V9YLT44HrTgCmrXW2-U-8" value="VLAN20" style="text;html=1;align=center;verticalAlign=middle;whiteSpace=wrap;rounded=0;" parent="1" vertex="1">
          <mxGeometry x="56" y="140" width="86" height="30" as="geometry" />
        </mxCell>
        <mxCell id="-V9YLT44HrTgCmrXW2-U-9" value="VLAN30" style="text;html=1;align=center;verticalAlign=middle;whiteSpace=wrap;rounded=0;" parent="1" vertex="1">
          <mxGeometry x="162" y="766" width="86" height="30" as="geometry" />
        </mxCell>
        <mxCell id="-V9YLT44HrTgCmrXW2-U-10" value="VLAN40" style="text;html=1;align=center;verticalAlign=middle;whiteSpace=wrap;rounded=0;" parent="1" vertex="1">
          <mxGeometry x="52" y="766" width="86" height="30" as="geometry" />
        </mxCell>
        <mxCell id="-V9YLT44HrTgCmrXW2-U-11" value="ACCOUNTING" style="text;html=1;align=center;verticalAlign=middle;whiteSpace=wrap;rounded=0;" parent="1" vertex="1">
          <mxGeometry x="187" y="848" width="86" height="30" as="geometry" />
        </mxCell>
        <mxCell id="-V9YLT44HrTgCmrXW2-U-12" value="LOGISTICS&lt;div&gt;&amp;amp;&lt;/div&gt;&lt;div&gt;SUPPLY CHAIN&lt;/div&gt;" style="text;html=1;align=center;verticalAlign=middle;whiteSpace=wrap;rounded=0;" parent="1" vertex="1">
          <mxGeometry x="190" y="486" width="106" height="30" as="geometry" />
        </mxCell>
        <mxCell id="-V9YLT44HrTgCmrXW2-U-13" value="HR" style="text;html=1;align=center;verticalAlign=middle;whiteSpace=wrap;rounded=0;" parent="1" vertex="1">
          <mxGeometry x="190" y="400" width="106" height="30" as="geometry" />
        </mxCell>
        <mxCell id="-V9YLT44HrTgCmrXW2-U-15" value="IT" style="text;html=1;align=center;verticalAlign=middle;whiteSpace=wrap;rounded=0;perimeterSpacing=3;" parent="1" vertex="1">
          <mxGeometry x="988.25" y="858" width="86" height="30" as="geometry" />
        </mxCell>
        <mxCell id="-V9YLT44HrTgCmrXW2-U-16" value="&lt;font color=&quot;#ffffff&quot;&gt;MARKETING&lt;/font&gt;" style="text;html=1;align=center;verticalAlign=middle;whiteSpace=wrap;rounded=0;perimeterSpacing=3;" parent="1" vertex="1">
          <mxGeometry x="1602.5" y="796" width="86" height="30" as="geometry" />
        </mxCell>
        <mxCell id="-V9YLT44HrTgCmrXW2-U-17" value="&lt;font style=&quot;font-size: 72px;&quot;&gt;&lt;b&gt;ENTERPRISE NETWORK&lt;/b&gt;&lt;/font&gt;" style="text;html=1;align=center;verticalAlign=middle;whiteSpace=wrap;rounded=0;" parent="1" vertex="1">
          <mxGeometry x="356.5" y="-300" width="1030" height="200" as="geometry" />
        </mxCell>
      </root>
    </mxGraphModel>
  </diagram>
</mxfile>
